<svg width="47" height="46" viewBox="0 0 47 46" fill="none" xmlns="http://www.w3.org/2000/svg">
<rect x="0.745728" width="46" height="46" rx="23" fill="#FD853A"/>
<path d="M35.9401 26.5953C34.8474 27.7882 33.5059 28.526 31.8828 28.5885C28.8179 28.7063 26.4454 26.9061 26.1516 24.6538C25.5669 20.1703 28.4861 17.4112 31.6832 17.4112C33.31 17.4112 34.521 18.0328 35.5961 19.0293L38.401 15.8705C36.8789 14.3661 34.538 13 31.6832 13C28.9193 13 26.4319 13.914 24.5458 15.6215V13.4076H10.6457V17.6873H19.4398V24.4952C19.4398 27.5861 18.2628 28.5885 15.972 28.5885C14.4841 28.5885 12.9616 27.7186 11.6734 26.1089L8.74573 29.2749C10.7088 32.0211 13.6435 33 16.1411 33C20.0065 33 22.3095 31.5884 23.5009 29.4611C25.4398 31.801 28.2821 33 31.3572 33C34.3882 33 36.9081 31.8625 38.7457 29.6852L35.9401 26.5953Z" fill="white"/>
</svg>
